<svg xmlns="http://www.w3.org/2000/svg" viewBox="0 0 680 280" width="680" height="280">
  <style>

    @keyframes glitch-card {
      0%   { opacity: 0; transform: translateX(-4px); }
      5%   { opacity: 1; transform: translateX(3px); }
      8%   { opacity: 0.3; transform: translateX(-2px); }
      10%  { opacity: 1; transform: translateX(0); }
      92%  { opacity: 1; transform: translateX(0); }
      93%  { opacity: 0.4; transform: translateX(2px); }
      94%  { opacity: 1; transform: translateX(-1px); }
      95%  { opacity: 0.7; transform: translateX(0); }
      96%  { opacity: 1; transform: translateX(0); }
      100% { opacity: 1; transform: translateX(0); }
    }

    @keyframes glitch-text {
      0%,100% { opacity: 1; letter-spacing: 0.2em; }
      3%  { opacity: 0.2; letter-spacing: 0.4em; }
      6%  { opacity: 1; letter-spacing: 0.2em; }
      60% { opacity: 1; letter-spacing: 0.2em; }
      61% { opacity: 0.5; letter-spacing: 0.3em; }
      62% { opacity: 1; letter-spacing: 0.2em; }
    }

    @keyframes flicker-line {
      0%,100% { opacity: 1; }
      4%  { opacity: 0; }
      5%  { opacity: 1; }
      55% { opacity: 1; }
      56% { opacity: 0.3; }
      57% { opacity: 1; }
    }

    @keyframes boot-fill {
      0%   { width: 0px; opacity: 0.3; }
      15%  { width: 20px; opacity: 0.8; }
      18%  { width: 10px; opacity: 0.4; }
      22%  { width: 64px; opacity: 1; }
      85%  { width: 64px; opacity: 1; }
      87%  { width: 50px; opacity: 0.6; }
      89%  { width: 64px; opacity: 1; }
      100% { width: 64px; opacity: 1; }
    }

    @keyframes scanline {
      0%   { transform: translateY(0px); opacity: 0.06; }
      100% { transform: translateY(160px); opacity: 0.06; }
    }

    @keyframes border-glitch {
      0%,100% { opacity: 1; }
      7%  { opacity: 0; }
      8%  { opacity: 1; }
      70% { opacity: 1; }
      71% { opacity: 0.3; }
      72% { opacity: 1; }
    }

    .c1 { animation: glitch-card 6s ease-out infinite; animation-delay: 0.0s; }
    .c2 { animation: glitch-card 6s ease-out infinite; animation-delay: 0.15s; }
    .c3 { animation: glitch-card 6s ease-out infinite; animation-delay: 0.30s; }
    .c4 { animation: glitch-card 6s ease-out infinite; animation-delay: 0.45s; }
    .c5 { animation: glitch-card 6s ease-out infinite; animation-delay: 0.60s; }
    .c6 { animation: glitch-card 6s ease-out infinite; animation-delay: 0.75s; }
    .c7 { animation: glitch-card 6s ease-out infinite; animation-delay: 0.90s; }
    .c8 { animation: glitch-card 6s ease-out infinite; animation-delay: 1.05s; }

    .lc1 { animation: glitch-card 7s ease-out infinite; animation-delay: 0.0s; }
    .lc2 { animation: glitch-card 7s ease-out infinite; animation-delay: 0.2s; }
    .lc3 { animation: glitch-card 7s ease-out infinite; animation-delay: 0.4s; }
    .lc4 { animation: glitch-card 7s ease-out infinite; animation-delay: 0.6s; }
    .lc5 { animation: glitch-card 7s ease-out infinite; animation-delay: 0.8s; }

    .hdr  { animation: glitch-text 8s ease-out infinite; }
    .hdr2 { animation: glitch-text 8s ease-out infinite 1s; }
    .ln   { animation: flicker-line 7s ease-out infinite; }
    .acc  { animation: border-glitch 6s ease-out infinite; }
    .scan { animation: scanline 3s linear infinite; }

    .bf1 { animation: boot-fill 7s ease-out infinite 0.0s; }
    .bf2 { animation: boot-fill 7s ease-out infinite 0.2s; }
    .bf3 { animation: boot-fill 7s ease-out infinite 0.4s; }
  </style>

  <svg x="0" y="0" viewBox="0 0 680 138" width="680" height="138">
    <rect width="680" height="138" fill="#0a0c0f" rx="6"/>
    <rect class="scan" x="0" y="0" width="680" height="28" fill="#2a9d5c"/>
    <rect class="acc" x="0" y="0" width="2" height="138" fill="#2a9d5c" rx="1"/>
    
    <text class="hdr" x="20" y="22" fill="#2a9d5c" font-size="9" font-family="JetBrains Mono, monospace" letter-spacing="0.2em">&gt; STACK // sys.load</text>
    <line class="ln" x1="160" y1="18" x2="660" y2="18" stroke="#1a2332" stroke-width="1"/>

    <g class="c1">
      <rect x="20" y="32" width="68" height="68" fill="#0d1a10" rx="3" stroke="#1a3a20" stroke-width="0.5"/>
      <text x="54" y="66" font-size="26" text-anchor="middle" font-family="JetBrains Mono, monospace" fill="#4a7a9b" font-weight="500">C</text>
      <text x="54" y="90" fill="#2a4a3a" font-size="9" font-family="JetBrains Mono, monospace" text-anchor="middle">C</text>
    </g>
    <g class="c2">
      <rect x="96" y="32" width="68" height="68" fill="#0d1a10" rx="3" stroke="#1a3a20" stroke-width="0.5"/>
      <path d="M122 44 Q119 52 124 57 Q129 62 127 70" stroke="#4a7a9b" stroke-width="1.5" fill="none" stroke-linecap="round"/>
      <path d="M118 74 Q130 78 142 74" stroke="#4a7a9b" stroke-width="1.5" fill="none" stroke-linecap="round"/>
      <path d="M116 77 L116 84 L144 84 L144 77" stroke="#4a7a9b" stroke-width="1.5" fill="none" stroke-linejoin="round"/>
      <text x="130" y="92" fill="#2a4a3a" font-size="9" font-family="JetBrains Mono, monospace" text-anchor="middle">Java</text>
    </g>
    <g class="c3">
      <rect x="172" y="32" width="68" height="68" fill="#0d1a10" rx="3" stroke="#1a3a20" stroke-width="0.5"/>
      <rect x="188" y="44" width="36" height="36" fill="none" stroke="#4a7a9b" stroke-width="1.2" rx="2"/>
      <text x="206" y="70" font-size="16" font-family="JetBrains Mono, monospace" fill="#4a7a9b" font-weight="500" text-anchor="middle">JS</text>
      <text x="206" y="92" fill="#2a4a3a" font-size="9" font-family="JetBrains Mono, monospace" text-anchor="middle">JavaScript</text>
    </g>
    <g class="c4">
      <rect x="248" y="32" width="68" height="68" fill="#0d1a10" rx="3" stroke="#1a3a20" stroke-width="0.5"/>
      <polygon points="282,43 272,73 282,77 292,73" fill="none" stroke="#4a7a9b" stroke-width="1.2" stroke-linejoin="round"/>
      <line x1="276" y1="57" x2="288" y2="57" stroke="#4a7a9b" stroke-width="1.2"/>
      <text x="282" y="92" fill="#2a4a3a" font-size="9" font-family="JetBrains Mono, monospace" text-anchor="middle">HTML5</text>
    </g>
    <g class="c5">
      <rect x="324" y="32" width="68" height="68" fill="#0d1a10" rx="3" stroke="#1a3a20" stroke-width="0.5"/>
      <polygon points="358,43 349,71 358,75 367,71" fill="none" stroke="#4a7a9b" stroke-width="1.2" stroke-linejoin="round"/>
      <line x1="353" y1="55" x2="363" y2="55" stroke="#4a7a9b" stroke-width="1.2"/>
      <line x1="355" y1="63" x2="361" y2="63" stroke="#4a7a9b" stroke-width="1.2"/>
      <text x="358" y="92" fill="#2a4a3a" font-size="9" font-family="JetBrains Mono, monospace" text-anchor="middle">CSS3</text>
    </g>
    <g class="c6">
      <rect x="400" y="32" width="68" height="68" fill="#0d1a10" rx="3" stroke="#1a3a20" stroke-width="0.5"/>
      <rect x="412" y="44" width="44" height="28" fill="none" stroke="#4a7a9b" stroke-width="1.2" rx="3" opacity="0.6"/>
      <text x="418" y="63" font-size="13" font-family="JetBrains Mono, monospace" fill="#4a7a9b">$_</text>
      <text x="434" y="92" fill="#2a4a3a" font-size="9" font-family="JetBrains Mono, monospace" text-anchor="middle">Bash</text>
    </g>
    <g class="c7">
      <rect x="476" y="32" width="68" height="68" fill="#0d1a10" rx="3" stroke="#1a3a20" stroke-width="0.5"/>
      <circle cx="504" cy="50" r="4" fill="none" stroke="#4a7a9b" stroke-width="1.2"/>
      <circle cx="504" cy="70" r="4" fill="none" stroke="#4a7a9b" stroke-width="1.2"/>
      <circle cx="520" cy="60" r="4" fill="none" stroke="#4a7a9b" stroke-width="1.2"/>
      <line x1="504" y1="54" x2="504" y2="66" stroke="#4a7a9b" stroke-width="1.2"/>
      <path d="M504 54 Q504 60 516 60" stroke="#4a7a9b" stroke-width="1.2" fill="none"/>
      <text x="510" y="92" fill="#2a4a3a" font-size="9" font-family="JetBrains Mono, monospace" text-anchor="middle">Git</text>
    </g>
    <g class="c8">
      <rect x="552" y="32" width="68" height="68" fill="#0d1a10" rx="3" stroke="#1a3a20" stroke-width="0.5"/>
      <rect x="564" y="46" width="44" height="28" fill="none" stroke="#4a7a9b" stroke-width="1.2" rx="2"/>
      <text x="578" y="66" font-size="13" font-family="JetBrains Mono, monospace" fill="#4a7a9b" font-weight="500">MD</text>
      <text x="586" y="92" fill="#2a4a3a" font-size="9" font-family="JetBrains Mono, monospace" text-anchor="middle">Markdown</text>
    </g>
    <text x="20" y="125" fill="#1a3a20" font-size="9" font-family="JetBrains Mono, monospace">// 8 modules loaded · status: stable</text>
  </svg>

  <svg x="0" y="146" viewBox="0 0 680 128" width="680" height="128">
    <rect width="680" height="128" fill="#0a0c0f" rx="6"/>
    <rect class="scan" x="0" y="0" width="680" height="28" fill="#1a9dbf"/>
    <rect class="acc" x="0" y="0" width="2" height="128" fill="#1a6a8a" rx="1"/>

    <text class="hdr2" x="20" y="22" fill="#1a9dbf" font-size="9" font-family="JetBrains Mono, monospace" letter-spacing="0.2em">&gt; LEARNING // path.devsecops</text>
    <line class="ln" x1="240" y1="18" x2="660" y2="18" stroke="#1a2332" stroke-width="1"/>

    <g class="lc1">
      <rect x="20" y="32" width="112" height="78" fill="#0d1820" rx="3" stroke="#1a2a3a" stroke-width="0.5"/>
      <circle cx="76" cy="62" r="16" fill="none" stroke="#1a9dbf" stroke-width="1" opacity="0.25"/>
      <circle cx="76" cy="62" r="10" fill="none" stroke="#1a9dbf" stroke-width="1" opacity="0.5"/>
      <circle cx="76" cy="62" r="4" fill="#1a9dbf" opacity="0.8"/>
      <text x="76" y="102" fill="#1a4a6a" font-size="9" font-family="JetBrains Mono, monospace" text-anchor="middle">TryHackMe</text>
    </g>
    <g class="lc2">
      <rect x="142" y="32" width="112" height="78" fill="#0d1820" rx="3" stroke="#1a2a3a" stroke-width="0.5"/>
      <rect x="160" y="44" width="76" height="42" fill="none" stroke="#1a9dbf" stroke-width="1.2" rx="3" opacity="0.4"/>
      <text x="172" y="70" font-size="14" font-family="JetBrains Mono, monospace" fill="#1a9dbf" opacity="0.9">$ _</text>
      <text x="198" y="102" fill="#1a4a6a" font-size="9" font-family="JetBrains Mono, monospace" text-anchor="middle">Linux · Kali</text>
    </g>
    <g class="lc3">
      <rect x="264" y="32" width="112" height="78" fill="#0d1820" rx="3" stroke="#1a2a3a" stroke-width="0.5"/>
      <circle cx="320" cy="50" r="5" fill="none" stroke="#1a9dbf" stroke-width="1.2" opacity="0.8"/>
      <circle cx="300" cy="70" r="5" fill="none" stroke="#1a9dbf" stroke-width="1.2" opacity="0.6"/>
      <circle cx="340" cy="70" r="5" fill="none" stroke="#1a9dbf" stroke-width="1.2" opacity="0.6"/>
      <circle cx="320" cy="76" r="5" fill="none" stroke="#1a9dbf" stroke-width="1.2" opacity="0.4"/>
      <line x1="320" y1="55" x2="304" y2="65" stroke="#1a9dbf" stroke-width="1" opacity="0.4"/>
      <line x1="320" y1="55" x2="336" y2="65" stroke="#1a9dbf" stroke-width="1" opacity="0.4"/>
      <line x1="305" y1="75" x2="315" y2="71" stroke="#1a9dbf" stroke-width="1" opacity="0.3"/>
      <line x1="335" y1="75" x2="325" y2="71" stroke="#1a9dbf" stroke-width="1" opacity="0.3"/>
      <text x="320" y="102" fill="#1a4a6a" font-size="9" font-family="JetBrains Mono, monospace" text-anchor="middle">Redes</text>
    </g>
    <g class="lc4">
      <rect x="386" y="32" width="112" height="78" fill="#0d1820" rx="3" stroke="#1a2a3a" stroke-width="0.5"/>
      <rect x="410" y="44" width="64" height="10" fill="#0a1520" rx="2"/>
      <rect class="bf1" x="410" y="44" height="10" rx="2" fill="#1a9dbf" opacity="0.75"/>
      <rect x="410" y="58" width="64" height="10" fill="#0a1520" rx="2"/>
      <rect class="bf2" x="410" y="58" height="10" rx="2" fill="#1a9dbf" opacity="0.55"/>
      <rect x="410" y="72" width="64" height="10" fill="#0a1520" rx="2"/>
      <rect class="bf3" x="410" y="72" height="10" rx="2" fill="#1a9dbf" opacity="0.4"/>
      <text x="442" y="102" fill="#1a4a6a" font-size="9" font-family="JetBrains Mono, monospace" text-anchor="middle">Docker</text>
    </g>
    <g class="lc5">
      <rect x="508" y="32" width="112" height="78" fill="#0d1820" rx="3" stroke="#1a2a3a" stroke-width="0.5"/>
      <circle cx="532" cy="72" r="6" fill="none" stroke="#1a9dbf" stroke-width="1.2" opacity="0.6"/>
      <circle cx="552" cy="56" r="6" fill="none" stroke="#1a9dbf" stroke-width="1.2" opacity="0.75"/>
      <circle cx="572" cy="72" r="6" fill="none" stroke="#1a9dbf" stroke-width="1.2" opacity="0.9"/>
      <line x1="538" y1="68" x2="546" y2="60" stroke="#1a9dbf" stroke-width="1" opacity="0.45"/>
      <line x1="558" y1="60" x2="566" y2="68" stroke="#1a9dbf" stroke-width="1" opacity="0.45"/>
      <circle cx="532" cy="72" r="3" fill="#1a9dbf" opacity="0.5"/>
      <circle cx="552" cy="56" r="3" fill="#1a9dbf" opacity="0.65"/>
      <circle cx="572" cy="72" r="3" fill="#1a9dbf" opacity="0.8"/>
      <text x="564" y="102" fill="#1a4a6a" font-size="9" font-family="JetBrains Mono, monospace" text-anchor="middle">CI/CD</text>
    </g>
    <text x="20" y="118" fill="#0d2a3a" font-size="9" font-family="JetBrains Mono, monospace">// 5 paths active · devsecops.roadmap</text>
  </svg>
</svg>
